#N canvas 552 178 527 385 10;
#X obj 315 108 arduino 1;
#X obj 69 157 send \$0-arduino;
#X obj 312 48 receive \$0-arduino;
#X msg 59 42 devices;
#X msg 139 44 open 2;
#X msg 204 47 close;
#X obj 358 283 send;
#X connect 3 0 1 0;
#X connect 4 0 1 0;
#X connect 5 0 1 0;
